<?xml version="1.0" encoding="UTF-8" standalone="no"?>
<!DOCTYPE svg PUBLIC "-//W3C//DTD SVG 1.1//EN"
 "http://www.w3.org/Graphics/SVG/1.1/DTD/svg11.dtd">
<!-- Generated by graphviz version 11.0.0 (20240428.1522)
 -->
<!-- Pages: 1 -->
<svg width="1238pt" height="756pt"
 viewBox="0.00 0.00 1237.50 756.35" xmlns="http://www.w3.org/2000/svg" xmlns:xlink="http://www.w3.org/1999/xlink">
<g id="graph0" class="graph" transform="scale(1 1) rotate(0) translate(4 752.35)">
<polygon fill="white" stroke="none" points="-4,4 -4,-752.35 1233.5,-752.35 1233.5,4 -4,4"/>
<text text-anchor="middle" x="512" y="-729.15" font-family="Segoe UI" font-size="16.00">Session Runner State Machine</text>
<!-- Ready -->
<g id="node1" class="node">
<title>Ready</title>
<path fill="#d6ead6" stroke="black" d="M557.6,-420C557.6,-420 466.4,-420 466.4,-420 460.4,-420 454.4,-414 454.4,-408 454.4,-408 454.4,-396 454.4,-396 454.4,-390 460.4,-384 466.4,-384 466.4,-384 557.6,-384 557.6,-384 563.6,-384 569.6,-390 569.6,-396 569.6,-396 569.6,-408 569.6,-408 569.6,-414 563.6,-420 557.6,-420"/>
<text text-anchor="middle" x="512" y="-398.07" font-family="Segoe UI" font-size="14.00">Ready</text>
</g>
<!-- AdjustingLightSetup -->
<g id="node2" class="node">
<title>AdjustingLightSetup</title>
<path fill="white" stroke="black" d="M964.75,-420C964.75,-420 845.25,-420 845.25,-420 839.25,-420 833.25,-414 833.25,-408 833.25,-408 833.25,-396 833.25,-396 833.25,-390 839.25,-384 845.25,-384 845.25,-384 964.75,-384 964.75,-384 970.75,-384 976.75,-390 976.75,-396 976.75,-396 976.75,-408 976.75,-408 976.75,-414 970.75,-420 964.75,-420"/>
<text text-anchor="middle" x="905" y="-398.07" font-family="Segoe UI" font-size="14.00">AdjustingLightSetup</text>
</g>
<!-- Ready&#45;&gt;AdjustingLightSetup -->
<g id="edge4" class="edge">
<title>Ready&#45;&gt;AdjustingLightSetup</title>
<path fill="none" stroke="#8e44ad" d="M538.29,-383.7C555.05,-373.18 577.7,-360.99 599.8,-355.5 621.72,-350.05 780.98,-350.7 803.05,-355.5 824.03,-360.06 845.86,-369.33 863.92,-378.4"/>
<polygon fill="#8e44ad" stroke="#8e44ad" points="862.25,-381.47 872.73,-382.98 865.47,-375.26 862.25,-381.47"/>
<text text-anchor="middle" x="701.42" y="-360.95" font-family="Segoe UI" font-size="14.00" fill="#8e44ad"> &#160;&#160;&#160;&#160;&#160;&#160;&#160;&#160;&#160;&#160;&#160;&#160;&#160;DoAutoLight &#160;&#160;&#160;&#160;&#160;&#160;&#160;&#160;&#160;&#160;&#160;&#160;&#160;</text>
</g>
<!-- Ready&#45;&gt;AdjustingLightSetup -->
<g id="edge5" class="edge">
<title>Ready&#45;&gt;AdjustingLightSetup</title>
<path fill="none" stroke="#8e44ad" d="M569.72,-385.6C579.68,-383.37 589.98,-381.45 599.8,-380.25 644.63,-374.78 758.13,-375.51 803.05,-380.25 809.12,-380.89 815.37,-381.74 821.63,-382.73"/>
<polygon fill="#8e44ad" stroke="#8e44ad" points="820.96,-386.17 831.41,-384.4 822.14,-379.27 820.96,-386.17"/>
<text text-anchor="middle" x="701.42" y="-385.7" font-family="Segoe UI" font-size="14.00" fill="#8e44ad"> &#160;&#160;&#160;&#160;&#160;&#160;&#160;&#160;&#160;&#160;&#160;&#160;&#160;LoadLightSetup &#160;&#160;&#160;&#160;&#160;&#160;&#160;&#160;&#160;&#160;&#160;&#160;&#160;</text>
</g>
<!-- Ready&#45;&gt;AdjustingLightSetup -->
<g id="edge6" class="edge">
<title>Ready&#45;&gt;AdjustingLightSetup</title>
<path fill="none" stroke="#8e44ad" d="M569.71,-420.41C575.64,-421.77 581.62,-422.93 587.42,-423.75 637.59,-430.84 765.12,-429.77 815.42,-423.75 818.63,-423.37 821.88,-422.91 825.16,-422.39"/>
<polygon fill="#8e44ad" stroke="#8e44ad" points="825.62,-425.86 834.86,-420.68 824.4,-418.97 825.62,-425.86"/>
<text text-anchor="middle" x="701.42" y="-435.2" font-family="Segoe UI" font-size="14.00" fill="#8e44ad"> &#160;&#160;&#160;&#160;&#160;&#160;&#160;&#160;&#160;&#160;&#160;&#160;&#160;SaveLightSetup &#160;&#160;&#160;&#160;&#160;&#160;&#160;&#160;&#160;&#160;&#160;&#160;&#160;</text>
</g>
<!-- Capturing -->
<g id="node6" class="node">
<title>Capturing</title>
<path fill="white" stroke="black" d="M464.5,-245.5C464.5,-245.5 409.5,-245.5 409.5,-245.5 403.5,-245.5 397.5,-239.5 397.5,-233.5 397.5,-233.5 397.5,-221.5 397.5,-221.5 397.5,-215.5 403.5,-209.5 409.5,-209.5 409.5,-209.5 464.5,-209.5 464.5,-209.5 470.5,-209.5 476.5,-215.5 476.5,-221.5 476.5,-221.5 476.5,-233.5 476.5,-233.5 476.5,-239.5 470.5,-245.5 464.5,-245.5"/>
<text text-anchor="middle" x="437" y="-223.57" font-family="Segoe UI" font-size="14.00">Capturing</text>
</g>
<!-- Ready&#45;&gt;Capturing -->
<g id="edge7" class="edge">
<title>Ready&#45;&gt;Capturing</title>
<path fill="none" stroke="black" d="M504.4,-383.51C491.33,-353.47 464.54,-291.85 448.96,-256.01"/>
<polygon fill="black" stroke="black" points="452.31,-254.94 445.12,-247.17 445.89,-257.73 452.31,-254.94"/>
<text text-anchor="middle" x="507.12" y="-319.7" font-family="Segoe UI" font-size="14.00">Capture</text>
</g>
<!-- AdjustingLightSetup&#45;&gt;Ready -->
<g id="edge8" class="edge">
<title>AdjustingLightSetup&#45;&gt;Ready</title>
<path fill="none" stroke="#8e44ad" d="M833.09,-402C761.44,-402 652.19,-402 581.44,-402"/>
<polygon fill="#8e44ad" stroke="#8e44ad" points="581.5,-398.5 571.5,-402 581.5,-405.5 581.5,-398.5"/>
<text text-anchor="middle" x="701.42" y="-410.45" font-family="Segoe UI" font-size="14.00" fill="#8e44ad"> &#160;&#160;&#160;&#160;&#160;&#160;&#160;&#160;&#160;&#160;&#160;&#160;&#160;LightSetupAdjusted &#160;&#160;&#160;&#160;&#160;&#160;&#160;&#160;&#160;&#160;&#160;&#160;&#160;</text>
</g>
<!-- AdjustingLightSetupFailed -->
<g id="node3" class="node">
<title>AdjustingLightSetupFailed</title>
<path fill="#f8d0d0" stroke="black" d="M1217.5,-420C1217.5,-420 1060.5,-420 1060.5,-420 1054.5,-420 1048.5,-414 1048.5,-408 1048.5,-408 1048.5,-396 1048.5,-396 1048.5,-390 1054.5,-384 1060.5,-384 1060.5,-384 1217.5,-384 1217.5,-384 1223.5,-384 1229.5,-390 1229.5,-396 1229.5,-396 1229.5,-408 1229.5,-408 1229.5,-414 1223.5,-420 1217.5,-420"/>
<text text-anchor="middle" x="1139" y="-398.07" font-family="Segoe UI" font-size="14.00">AdjustingLightSetupFailed</text>
</g>
<!-- AdjustingLightSetup&#45;&gt;AdjustingLightSetupFailed -->
<g id="edge9" class="edge">
<title>AdjustingLightSetup&#45;&gt;AdjustingLightSetupFailed</title>
<path fill="none" stroke="#c0392b" d="M977.12,-402C995.95,-402 1016.61,-402 1036.69,-402"/>
<polygon fill="#c0392b" stroke="#c0392b" points="1036.58,-405.5 1046.58,-402 1036.58,-398.5 1036.58,-405.5"/>
<text text-anchor="middle" x="1012.62" y="-410.45" font-family="Segoe UI" font-size="14.00" fill="#c0392b">Fail</text>
</g>
<!-- AdjustingLightSetupFailed&#45;&gt;Ready -->
<g id="edge10" class="edge">
<title>AdjustingLightSetupFailed&#45;&gt;Ready</title>
<path fill="none" stroke="#2980b9" d="M1102.98,-420.4C1040.45,-450.18 907.42,-503.96 792.12,-486.88 712.48,-475.07 624.12,-445.37 568.34,-424.44"/>
<polygon fill="#2980b9" stroke="#2980b9" points="569.64,-421.19 559.05,-420.92 567.16,-427.74 569.64,-421.19"/>
<text text-anchor="middle" x="809" y="-469.2" font-family="Segoe UI" font-size="14.00" fill="#2980b9"> &#160;&#160;&#160;&#160;&#160;&#160;&#160;&#160;</text>
<text text-anchor="middle" x="809" y="-450.45" font-family="Segoe UI" font-size="14.00" fill="#2980b9"> </text>
<text text-anchor="middle" x="832.9" y="-497.58" font-family="Segoe UI" font-size="14.00" fill="#2980b9">Recovered</text>
</g>
<!-- Idle -->
<g id="node4" class="node">
<title>Idle</title>
<path fill="#ededed" stroke="black" d="M527,-664.25C527,-664.25 497,-664.25 497,-664.25 491,-664.25 485,-658.25 485,-652.25 485,-652.25 485,-640.25 485,-640.25 485,-634.25 491,-628.25 497,-628.25 497,-628.25 527,-628.25 527,-628.25 533,-628.25 539,-634.25 539,-640.25 539,-640.25 539,-652.25 539,-652.25 539,-658.25 533,-664.25 527,-664.25"/>
<text text-anchor="middle" x="512" y="-642.33" font-family="Segoe UI" font-size="14.00">Idle</text>
</g>
<!-- Connecting -->
<g id="node5" class="node">
<title>Connecting</title>
<path fill="white" stroke="black" d="M544.38,-559.5C544.38,-559.5 479.62,-559.5 479.62,-559.5 473.62,-559.5 467.62,-553.5 467.62,-547.5 467.62,-547.5 467.62,-535.5 467.62,-535.5 467.62,-529.5 473.62,-523.5 479.62,-523.5 479.62,-523.5 544.38,-523.5 544.38,-523.5 550.38,-523.5 556.38,-529.5 556.38,-535.5 556.38,-535.5 556.38,-547.5 556.38,-547.5 556.38,-553.5 550.38,-559.5 544.38,-559.5"/>
<text text-anchor="middle" x="512" y="-537.58" font-family="Segoe UI" font-size="14.00">Connecting</text>
</g>
<!-- Idle&#45;&gt;Connecting -->
<g id="edge1" class="edge">
<title>Idle&#45;&gt;Connecting</title>
<path fill="none" stroke="black" d="M509.82,-627.98C508.54,-615.82 507.3,-599.18 508,-584.5 508.21,-580.15 508.53,-575.55 508.91,-571.05"/>
<polygon fill="black" stroke="black" points="512.39,-571.43 509.85,-561.15 505.42,-570.77 512.39,-571.43"/>
<text text-anchor="middle" x="545.5" y="-589.95" font-family="Segoe UI" font-size="14.00"> Connect &#160;&#160;&#160;&#160;</text>
</g>
<!-- Connecting&#45;&gt;Ready -->
<g id="edge3" class="edge">
<title>Connecting&#45;&gt;Ready</title>
<path fill="none" stroke="black" d="M512,-523.09C512,-500.05 512,-459.14 512,-431.55"/>
<polygon fill="black" stroke="black" points="515.5,-431.79 512,-421.79 508.5,-431.79 515.5,-431.79"/>
<text text-anchor="middle" x="548" y="-467.82" font-family="Segoe UI" font-size="14.00"> Connected</text>
</g>
<!-- Connecting&#45;&gt;Idle -->
<g id="edge2" class="edge">
<title>Connecting&#45;&gt;Idle</title>
<path fill="none" stroke="#c0392b" d="M556.71,-558.18C579.08,-568.73 599.24,-584.19 588,-603.25 579.56,-617.56 564.29,-627.34 549.64,-633.83"/>
<polygon fill="#c0392b" stroke="#c0392b" points="548.6,-630.48 540.6,-637.43 551.19,-636.98 548.6,-630.48"/>
<text text-anchor="middle" x="601.88" y="-589.95" font-family="Segoe UI" font-size="14.00" fill="#c0392b">Fail</text>
</g>
<!-- Capturing&#45;&gt;Ready -->
<g id="edge11" class="edge">
<title>Capturing&#45;&gt;Ready</title>
<path fill="none" stroke="#e08a1e" d="M433.04,-245.66C428.96,-267.11 424.84,-304.48 437.5,-333 445.33,-350.63 460.21,-365.67 474.63,-377.1"/>
<polygon fill="#e08a1e" stroke="#e08a1e" points="472.17,-379.63 482.27,-382.83 476.37,-374.03 472.17,-379.63"/>
<text text-anchor="middle" x="452.25" y="-319.7" font-family="Segoe UI" font-size="14.00" fill="#e08a1e">Stop</text>
</g>
<!-- Processing -->
<g id="node7" class="node">
<title>Processing</title>
<path fill="white" stroke="black" d="M649.12,-140.75C649.12,-140.75 588.88,-140.75 588.88,-140.75 582.88,-140.75 576.88,-134.75 576.88,-128.75 576.88,-128.75 576.88,-116.75 576.88,-116.75 576.88,-110.75 582.88,-104.75 588.88,-104.75 588.88,-104.75 649.12,-104.75 649.12,-104.75 655.12,-104.75 661.12,-110.75 661.12,-116.75 661.12,-116.75 661.12,-128.75 661.12,-128.75 661.12,-134.75 655.12,-140.75 649.12,-140.75"/>
<text text-anchor="middle" x="619" y="-118.83" font-family="Segoe UI" font-size="14.00">Processing</text>
</g>
<!-- Capturing&#45;&gt;Processing -->
<g id="edge12" class="edge">
<title>Capturing&#45;&gt;Processing</title>
<path fill="none" stroke="black" d="M467.87,-209.07C498.3,-191.89 544.94,-165.56 578.36,-146.69"/>
<polygon fill="black" stroke="black" points="579.97,-149.8 586.96,-141.84 576.53,-143.71 579.97,-149.8"/>
<text text-anchor="middle" x="559" y="-171.2" font-family="Segoe UI" font-size="14.00"> &#160;&#160;&#160;&#160;&#160;&#160;&#160;</text>
<text text-anchor="middle" x="473.69" y="-197.01" font-family="Segoe UI" font-size="14.00"> &#160;&#160;&#160;&#160;&#160;&#160;&#160;&#160;&#160;&#160;&#160;&#160;&#160;&#160;&#160;&#160;&#160;&#160;&#160;&#160;&#160;&#160;&#160;&#160;&#160;&#160;&#160;&#160;&#160;&#160;&#160;&#160;&#160;&#160;Captured</text>
</g>
<!-- Error -->
<g id="node8" class="node">
<title>Error</title>
<path fill="#f8d0d0" stroke="black" d="M245,-36C245,-36 215,-36 215,-36 209,-36 203,-30 203,-24 203,-24 203,-12 203,-12 203,-6 209,0 215,0 215,0 245,0 245,0 251,0 257,-6 257,-12 257,-12 257,-24 257,-24 257,-30 251,-36 245,-36"/>
<text text-anchor="middle" x="230" y="-14.07" font-family="Segoe UI" font-size="14.00">Error</text>
</g>
<!-- Capturing&#45;&gt;Error -->
<g id="edge13" class="edge">
<title>Capturing&#45;&gt;Error:n</title>
<path fill="none" stroke="#c0392b" d="M418.22,-209.14C392.63,-185.51 345.39,-141.89 305,-104.75 274.83,-77.01 237.75,-80.22 231.06,-47.41"/>
<polygon fill="#c0392b" stroke="#c0392b" points="234.55,-47.14 230.14,-37.51 227.58,-47.79 234.55,-47.14"/>
<text text-anchor="middle" x="354.88" y="-118.83" font-family="Segoe UI" font-size="14.00" fill="#c0392b">Fail</text>
</g>
<!-- Processing&#45;&gt;Ready -->
<g id="edge14" class="edge">
<title>Processing&#45;&gt;Ready</title>
<path fill="none" stroke="black" d="M612.8,-141.22C599.93,-177.26 569.18,-262.43 541,-333 535.68,-346.32 529.48,-360.98 524.18,-373.26"/>
<polygon fill="black" stroke="black" points="520.99,-371.81 520.22,-382.38 527.41,-374.6 520.99,-371.81"/>
<text text-anchor="middle" x="648.75" y="-275.95" font-family="Segoe UI" font-size="14.00">Processed [Single Capture]</text>
</g>
<!-- Processing&#45;&gt;Error -->
<g id="edge16" class="edge">
<title>Processing&#45;&gt;Error:e</title>
<path fill="none" stroke="#c0392b" d="M583.34,-104.27C521.57,-75.59 389.71,-21.41 269.25,-18.15"/>
<polygon fill="#c0392b" stroke="#c0392b" points="269.56,-14.66 259.51,-18.02 269.46,-21.66 269.56,-14.66"/>
<text text-anchor="middle" x="532.5" y="-66.45" font-family="Segoe UI" font-size="14.00" fill="#c0392b"> &#160;&#160;&#160;</text>
<text text-anchor="middle" x="417.81" y="-21.84" font-family="Segoe UI" font-size="14.00" fill="#c0392b">Fail</text>
</g>
<!-- Waiting -->
<g id="node9" class="node">
<title>Waiting</title>
<path fill="white" stroke="black" d="M604.75,-36C604.75,-36 563.25,-36 563.25,-36 557.25,-36 551.25,-30 551.25,-24 551.25,-24 551.25,-12 551.25,-12 551.25,-6 557.25,0 563.25,0 563.25,0 604.75,0 604.75,0 610.75,0 616.75,-6 616.75,-12 616.75,-12 616.75,-24 616.75,-24 616.75,-30 610.75,-36 604.75,-36"/>
<text text-anchor="middle" x="584" y="-14.07" font-family="Segoe UI" font-size="14.00">Waiting</text>
</g>
<!-- Processing&#45;&gt;Waiting -->
<g id="edge15" class="edge">
<title>Processing&#45;&gt;Waiting</title>
<path fill="none" stroke="black" d="M597.12,-104.31C590.2,-97.47 583.41,-89.03 579.75,-79.75 575.77,-69.67 575.66,-57.93 576.96,-47.48"/>
<polygon fill="black" stroke="black" points="580.36,-48.31 578.63,-37.86 573.47,-47.11 580.36,-48.31"/>
<text text-anchor="middle" x="680.62" y="-66.45" font-family="Segoe UI" font-size="14.00">Processed [Continuous Capture]</text>
</g>
<!-- Error&#45;&gt;Ready -->
<g id="edge19" class="edge">
<title>Error&#45;&gt;Ready</title>
<path fill="none" stroke="#2980b9" d="M202.71,-19.02C-90.75,-19.02 -90.75,-397.75 442.87,-397.75"/>
<polygon fill="#2980b9" stroke="#2980b9" points="442.58,-401.24 452.75,-398.27 442.95,-394.25 442.58,-401.24"/>
<text text-anchor="start" x="26.4" y="-223.57" font-family="Segoe UI" font-size="14.00" fill="#2980b9">Recovered [Single Capture]</text>
</g>
<!-- Error&#45;&gt;Capturing -->
<g id="edge20" class="edge">
<title>Error&#45;&gt;Capturing</title>
<path fill="none" stroke="#2980b9" d="M202.65,-28.32C151.99,-47.04 52.06,-91.64 90.5,-140.75 126.64,-186.93 298.72,-211.69 385.99,-221.47"/>
<polygon fill="#2980b9" stroke="#2980b9" points="385.39,-224.92 395.71,-222.53 386.15,-217.97 385.39,-224.92"/>
<text text-anchor="middle" x="193.75" y="-118.83" font-family="Segoe UI" font-size="14.00" fill="#2980b9">Recovered [Continuous Capture]</text>
</g>
<!-- Waiting&#45;&gt;Ready -->
<g id="edge17" class="edge">
<title>Waiting&#45;&gt;Ready</title>
<path fill="none" stroke="#E08A1E" d="M616.91,-21.93C667.86,-27.1 762.62,-39.36 788,-61 809.97,-79.73 811,-92.88 811,-121.75 811,-349.63 575.57,-336.06 536.68,-374.96"/>
<polygon fill="#e08a1e" stroke="#e08a1e" points="539.08,-377.36 529.26,-382.38 534.28,-372.55 539.08,-377.36"/>
<text text-anchor="middle" x="825.25" y="-223.57" font-family="Segoe UI" font-size="14.00" fill="#e08a1e">Stop</text>
</g>
<!-- Waiting&#45;&gt;Capturing -->
<g id="edge18" class="edge">
<title>Waiting&#45;&gt;Capturing</title>
<path fill="none" stroke="black" d="M551.08,-25.5C529.73,-31.35 502.85,-42.05 486,-61 451.47,-99.83 441.24,-161.99 438.23,-198.06"/>
<polygon fill="black" stroke="black" points="434.76,-197.49 437.56,-207.71 441.74,-197.97 434.76,-197.49"/>
<text text-anchor="middle" x="499" y="-118.83" font-family="Segoe UI" font-size="14.00">WaitElapsed</text>
</g>
<!-- init -->
<g id="node10" class="node">
<title>init</title>
<ellipse fill="white" stroke="black" cx="512" cy="-716.05" rx="1.8" ry="1.8"/>
</g>
<!-- init&#45;&gt;Idle -->
<g id="edge21" class="edge">
<title>init&#45;&gt;Idle</title>
<path fill="none" stroke="black" d="M512,-713.87C512,-709.23 512,-691.67 512,-675.74"/>
<polygon fill="black" stroke="black" points="515.5,-676.16 512,-666.16 508.5,-676.16 515.5,-676.16"/>
</g>
</g>
<g font-family="Segoe UI">
  <rect x="50" y="50" width="190" height="150" fill="white" stroke="#888888"/>
  <text x="58" y="74" font-size="14" font-weight="bold">Legend</text>
  <rect x="58" y="85" width="15" height="15" fill="#000000" stroke="#888888"/>
  <text x="81" y="98" font-size="14">Normal Workflow</text>
  <rect x="58" y="107" width="15" height="15" fill="#E08A1E" stroke="#888888"/>
  <text x="81" y="120" font-size="14">Stop</text>
  <rect x="58" y="129" width="15" height="15" fill="#C0392B" stroke="#888888"/>
  <text x="81" y="142" font-size="14">Failure</text>
  <rect x="58" y="151" width="15" height="15" fill="#2980B9" stroke="#888888"/>
  <text x="81" y="164" font-size="14">Recovery</text>
  <rect x="58" y="173" width="15" height="15" fill="#8E44AD" stroke="#888888"/>
  <text x="81" y="186" font-size="14">External Controller Only</text>
</g>
</svg>
